<?xml version="1.0" encoding="iso-8859-1"?>
<!-- Generator: Adobe Illustrator 19.0.0, SVG Export Plug-In . SVG Version: 6.00 Build 0)  -->
<svg version="1.1" id="Capa_1" xmlns="http://www.w3.org/2000/svg" xmlns:xlink="http://www.w3.org/1999/xlink" x="0px" y="0px"
	 viewBox="0 0 512 512" style="enable-background:new 0 0 512 512;" xml:space="preserve">
<g>
	<g>
		<path d="M442.706,171.03c-0.157,0.176-0.311,0.355-0.483,0.518c-3.075,2.929-6.587,5.329-10.221,7.506
			c-1.531,0.917-3.036,1.867-4.553,2.806c-0.224,0.139-0.378,0.23-0.488,0.293c-0.024,0.035-0.084,0.099-0.213,0.216
			c-0.076,0.069-0.146,0.14-0.22,0.209h2.357v27.891c0,4.145,3.359,7.505,7.505,7.505s7.505-3.36,7.505-7.505v-35.396
			C443.895,173.583,443.455,172.198,442.706,171.03z"/>
	</g>
</g>
<g>
	<g>
		<path d="M479.192,273.566h-35.296V255c0-4.145-3.359-7.505-7.505-7.505s-7.505,3.36-7.505,7.505v115.233
			c0,11.23-9.137,20.367-20.367,20.367h-4.357H166.287h-58.454h-4.356c-11.23,0-20.367-9.136-20.367-20.367V186.499
			c8.271,1.797,21.639,4.575,38.282,7.584v67.011c0,3.091,1.138,6.059,3.203,8.358l15.042,16.747c2.37,2.638,5.761,4.15,9.306,4.15
			c3.544,0,6.936-1.513,9.304-4.15l15.041-16.746c2.065-2.299,3.203-5.267,3.203-8.358v-58.407
			c25.32,3.298,52.794,5.906,79.328,6.54c0.06,0.001,0.12,0.002,0.179,0.002c0.059,0,0.12-0.001,0.179-0.002
			c26.533-0.634,54.008-3.24,79.328-6.538v58.406c0,3.091,1.138,6.059,3.202,8.358l15.042,16.746c2.368,2.637,5.76,4.15,9.304,4.151
			c0.001,0,0.001,0,0.002,0c3.544,0,6.937-1.513,9.306-4.15l15.04-16.746c2.065-2.299,3.203-5.267,3.203-8.358v-67.012
			c28.262-5.11,47.105-9.556,47.526-9.657c3.38-0.805,5.766-3.826,5.766-7.301V44.564c0-7.906-6.432-14.338-14.338-14.338h-46.458
			h-40.089h-31.333v-6.629C311.676,10.585,301.091,0,288.081,0h-64.165c-13.01,0-23.596,10.585-23.596,23.596v6.629h-31.334h-40.089
			H82.439c-7.906,0-14.338,6.432-14.338,14.338v130.511v2.049v96.442H32.805c-6.897,0-12.508,5.611-12.508,12.508v26.885v27.52
			c0,14.948,12.161,27.109,27.109,27.109h20.696v2.645c0,11.966,5.978,22.556,15.097,28.961
			c-9.187,7.284-15.097,18.53-15.097,31.138v41.935c0,21.908,17.825,39.733,39.733,39.733h23.764h34.69h179.424h34.69h23.763
			c21.909,0,39.733-17.825,39.733-39.733v-41.935c0-12.607-5.91-23.855-15.097-31.138c9.12-6.405,15.097-16.995,15.097-28.961
			v-2.645h20.696c14.948,0,27.109-12.161,27.109-27.109v-27.52v-26.885C491.7,279.178,486.09,273.566,479.192,273.566z
			 M390.605,45.235h38.282v125.899c-7.209,1.599-20.77,4.488-38.282,7.698V45.235z M350.515,45.235L350.515,45.235h25.079v214.9
			l-12.539,13.962l-12.54-13.962V45.235z M223.917,15.01h64.165c4.734,0,8.586,3.852,8.586,8.587v6.629h-81.336v-6.629h-0.001
			C215.331,18.862,219.182,15.01,223.917,15.01z M136.402,45.235L136.402,45.235h25.079v37.903c0,4.145,3.36,7.505,7.505,7.505
			c4.145,0,7.505-3.36,7.505-7.505V45.235h159.014v142.322c-25.318,3.347-52.906,6.015-79.507,6.66
			c-26.598-0.645-54.191-3.311-79.508-6.657v-59.643c0-4.145-3.36-7.505-7.505-7.505s-7.505,3.36-7.505,7.505v132.219
			l-12.539,13.961l-12.54-13.962V45.235z M83.111,45.235h38.282v133.596c-17.511-3.209-31.073-6.099-38.282-7.697V45.235z
			 M47.404,352.578c-6.671,0-12.099-5.427-12.099-12.099v-20.015H68.1v32.114H47.404z M68.101,305.455H35.307v-16.879h32.794
			V305.455z M124.092,496.99h-16.26c-13.632,0-24.723-11.09-24.723-24.723v-41.935c0-13.632,11.09-24.723,24.723-24.723h16.26
			V496.99z M158.782,496.99h-19.68v-91.38h19.68V496.99z M338.205,496.99H173.792v-91.38h164.414V496.99z M372.895,496.99h-19.68
			v-91.38h19.68V496.99z M428.887,430.333v41.934c0,13.632-11.091,24.723-24.723,24.723h-16.259v-91.38h16.259
			C417.795,405.61,428.887,416.7,428.887,430.333z M464.592,352.578h-20.696v-32.114h32.794v20.015h0.001
			C476.691,347.151,471.263,352.578,464.592,352.578z M476.691,305.455h-32.794v-16.879h32.794V305.455z"/>
	</g>
</g>
<g>
	<g>
		<path d="M315.234,282.086H196.765c-20.35,0-36.907,16.556-36.907,36.906v17.373c0,20.35,16.556,36.907,36.907,36.907h118.469
			c20.35,0,36.906-16.556,36.906-36.907v-17.373C352.14,298.642,335.584,282.086,315.234,282.086z M337.13,336.367
			c0,12.074-9.822,21.897-21.896,21.897H196.765c-12.074,0-21.897-9.822-21.897-21.897v-17.373c0-12.074,9.822-21.896,21.897-21.896
			h118.469c12.073-0.001,21.896,9.822,21.896,21.896V336.367z"/>
	</g>
</g>
<g>
	<g>
		<path d="M290.315,107.548l-25.473-25.473c-2.362-2.363-5.504-3.664-8.845-3.664c-3.341,0-6.482,1.301-8.845,3.663l-25.473,25.473
			c-4.877,4.877-4.877,12.812,0,17.689l25.473,25.473c2.363,2.363,5.504,3.663,8.845,3.663c3.341,0,6.483-1.301,8.845-3.663
			l25.472-25.472c2.363-2.363,3.664-5.504,3.664-8.845C293.98,113.052,292.678,109.909,290.315,107.548z M255.998,138.327
			l-21.934-21.934l21.934-21.934l21.934,21.934L255.998,138.327z"/>
	</g>
</g>
<g>
</g>
<g>
</g>
<g>
</g>
<g>
</g>
<g>
</g>
<g>
</g>
<g>
</g>
<g>
</g>
<g>
</g>
<g>
</g>
<g>
</g>
<g>
</g>
<g>
</g>
<g>
</g>
<g>
</g>
</svg>
